<svg xmlns="http://www.w3.org/2000/svg" viewBox="0 0 74.12 74.94"><defs><style>.cls-1,.cls-3{fill:#86827f;}.cls-2{fill:#fff;}.cls-3{stroke:#fff;stroke-miterlimit:10;stroke-width:7px;}</style></defs><title>Risorsa 1</title><g id="Livello_2" data-name="Livello 2"><g id="Livello_1-2" data-name="Livello 1"><polygon class="cls-1" points="0 0 74.12 0 74.12 74.94 0 74.94 0 0 0 0"/><path class="cls-2" d="M58.89,41.83c-4.31-.9-9.23-.18-11,1.73s.44,4.62,5.35,5.59l-4.89,6.31a41.7,41.7,0,0,1-4.39-1.05l-2.8-.71c-1.18-.27-2.32-.56-3.4-.88A150.18,150.18,0,0,1,23,48.3c-.44-.17-.86-.35-1.25-.53-16.4-7-18.56-18.53-5.48-26.41,12.05-7.26,33.58-8.61,50-4.85l-1.56,2C50.89,15.41,33.27,16.82,24.26,23c-6.87,4.69-7.14,10.73-1.57,15.71.49-2,1.94-4,4.41-5.76,8-5.73,24.17-7.14,37.05-4.26L62.8,30.42c-10.67-2.35-23.74-1-29.73,3.74-3.78,3-4,6.63-1.07,9.8l1.51.54a6.64,6.64,0,0,1,2.33-3.39c5.12-4.28,16.71-5.55,26.29-3.46Z"/><line class="cls-3" y1="71.44" x2="74.12" y2="71.44"/></g></g></svg>